Coordinates
version=1
nRows=26
nColumns=38
inDegrees=no

Units are S.I. units (second, meters, Newtons, ...)
If the header above contains a line with 'inDegrees', this indicates whether rotational values are in degrees (yes) or radians (no).

endheader
time	pelvis_tilt	pelvis_list	pelvis_rotation	pelvis_tx	pelvis_ty	pelvis_tz	hip_flexion_r	hip_adduction_r	hip_rotation_r	knee_angle_r	ankle_angle_r	subtalar_angle_r	mtp_angle_r	hip_flexion_l	hip_adduction_l	hip_rotation_l	knee_angle_l	ankle_angle_l	subtalar_angle_l	mtp_angle_l	lumbar_extension	lumbar_bending	lumbar_rotation	arm_flex_r	arm_add_r	arm_rot_r	elbow_flex_r	pro_sup_r	wrist_flex_r	wrist_dev_r	arm_flex_l	arm_add_l	arm_rot_l	elbow_flex_l	pro_sup_l	wrist_flex_l	wrist_dev_l
3.935	-0.157805	-0.0186488	-0.0193723	1.63885	0.979759	-0.501022	-0.074363	0.033535	-0.0299111	0.182187	0.291186	0.0420895	-0.031554	0.610632	-0.0230726	-0.0711771	0.0886896	-0.0110296	-0.0352772	-0.0226747	-0.0748503	0.0160412	0.237757	0.0186827	-0.231058	-0.271948	1.38369	1.40565	0.000420814	0.0022927	-0.248845	-0.0441211	0.0428666	0.497771	1.37026	0.00321411	0.00163884
3.94	-0.15766	-0.0166037	-0.0210266	1.64562	0.979078	-0.501411	-0.0780438	0.0296683	-0.0335329	0.189027	0.290131	0.0454658	-0.031554	0.608949	-0.0201175	-0.071372	0.0877539	-0.0100018	-0.0369091	-0.0226747	-0.0744954	0.0128802	0.239044	0.0195089	-0.231104	-0.271555	1.38548	1.40684	0.000420814	0.0022927	-0.248662	-0.0435282	0.0414214	0.497402	1.37091	0.00321411	0.00163884
3.945	-0.157317	-0.0143798	-0.0228233	1.65249	0.978464	-0.501797	-0.0817898	0.0255136	-0.0371826	0.196233	0.288508	0.048672	-0.031554	0.60731	-0.0172314	-0.0728357	0.0893639	-0.0092475	-0.0388689	-0.0226747	-0.0741633	0.00948022	0.240454	0.0198044	-0.231081	-0.271413	1.38676	1.40811	0.000420814	0.0022927	-0.248253	-0.0431392	0.0401627	0.49715	1.37154	0.00321411	0.00163884
3.95	-0.156811	-0.0120103	-0.024821	1.65945	0.977913	-0.502172	-0.085534	0.0211061	-0.0407895	0.203845	0.286301	0.0516433	-0.031554	0.605692	-0.0144908	-0.0754106	0.0933899	-0.00879142	-0.0411445	-0.0226747	-0.0738021	0.00587444	0.242039	0.0195413	-0.230981	-0.271527	1.3875	1.40945	0.000420814	0.0022927	-0.24763	-0.0429596	0.0390932	0.497014	1.37217	0.00321411	0.00163884
3.955	-0.156188	-0.0095389	-0.0270776	1.66651	0.97742	-0.502528	-0.0891944	0.0164916	-0.0442842	0.211912	0.283499	0.0543203	-0.031554	0.60408	-0.0119862	-0.0789057	0.0996551	-0.00864543	-0.0437056	-0.0226747	-0.0733579	0.00210863	0.243849	0.0187025	-0.230797	-0.271894	1.38772	1.41086	0.000420814	0.0022927	-0.246805	-0.0429893	0.0382104	0.496996	1.37281	0.00321411	0.00163884
3.96	-0.155503	-0.00701674	-0.0296376	1.67366	0.976978	-0.502861	-0.0926741	0.0117231	-0.0476076	0.220489	0.280094	0.0566501	-0.031554	0.602472	-0.00980711	-0.0831103	0.10793	-0.0088099	-0.0465041	-0.0226747	-0.0727759	-0.00176104	0.245925	0.017283	-0.230525	-0.2725	1.38741	1.41234	0.000420814	0.0022927	-0.24579	-0.043222	0.0375097	0.497094	1.37346	0.00321411	0.00163884
3.965	-0.154823	-0.00449493	-0.0325158	1.68089	0.976578	-0.503165	-0.0958653	0.00685304	-0.0507199	0.229636	0.276081	0.0585908	-0.031554	0.60088	-0.00802376	-0.087813	0.117934	-0.00927416	-0.0494723	-0.0226747	-0.0720017	-0.00567435	0.248284	0.015291	-0.230159	-0.273325	1.38657	1.41388	0.000420814	0.0022927	-0.244594	-0.0436459	0.0369854	0.497306	1.37412	0.00321411	0.00163884
3.97	-0.15422	-0.00201384	-0.0356818	1.6882	0.976211	-0.503445	-0.0986568	0.00192407	-0.0536103	0.239411	0.27146	0.0601181	-0.031554	0.599336	-0.00666952	-0.0928239	0.129348	-0.0100155	-0.0525214	-0.0226747	-0.070986	-0.00957626	0.250905	0.0127479	-0.229697	-0.274335	1.38518	1.41547	0.000420814	0.0022927	-0.243223	-0.0442444	0.0366279	0.497629	1.37478	0.00321411	0.00163884
3.975	-0.153754	0.000403609	-0.0390664	1.69558	0.975867	-0.503706	-0.10094	-0.003038	-0.0562972	0.249873	0.266232	0.061223	-0.031554	0.597886	-0.00573011	-0.0979872	0.141837	-0.0109997	-0.0555494	-0.0226747	-0.0696875	-0.0134246	0.253727	0.00968836	-0.229133	-0.27549	1.38325	1.41711	0.000420814	0.0022927	-0.241677	-0.0449979	0.0364269	0.498056	1.37543	0.00321411	0.00163884
3.98	-0.153462	0.00274808	-0.0425837	1.70302	0.975541	-0.503958	-0.102615	-0.00802761	-0.058824	0.261081	0.260405	0.0619093	-0.031554	0.596594	-0.00514244	-0.103185	0.155086	-0.0121825	-0.0584515	-0.0226747	-0.0680785	-0.017195	0.256649	0.00615853	-0.228461	-0.27674	1.38075	1.41879	0.000420814	0.0022927	-0.239957	-0.0458856	0.0363712	0.498579	1.37607	0.00321411	0.00163884
3.985	-0.153362	0.00502854	-0.0461209	1.71052	0.975228	-0.504212	-0.1036	-0.0130588	-0.061251	0.273092	0.253985	0.0621912	-0.031554	0.595532	-0.00480403	-0.108334	0.16883	-0.0135106	-0.0611322	-0.0226747	-0.0661502	-0.020882	0.259542	0.00221474	-0.227673	-0.27803	1.37768	1.4205	0.000420814	0.0022927	-0.238058	-0.046887	0.0364457	0.49919	1.37669	0.00321411	0.00163884
3.99	-0.153454	0.00727128	-0.049545	1.71806	0.974936	-0.504484	-0.103834	-0.0181593	-0.0636419	0.285975	0.24698	0.0620874	-0.031554	0.594769	-0.00459063	-0.11337	0.182877	-0.01492	-0.0635207	-0.0226747	-0.0639168	-0.0244933	0.262264	-0.00207969	-0.226756	-0.279302	1.374	1.42224	0.000420814	0.0022927	-0.235976	-0.0479824	0.036634	0.49988	1.37728	0.00321411	0.00163884
3.995	-0.153731	0.00950648	-0.0527209	1.72563	0.974679	-0.504787	-0.103277	-0.0233634	-0.0660522	0.299808	0.239398	0.0616183	-0.031554	0.594355	-0.00437665	-0.118243	0.197113	-0.0163306	-0.065583	-0.0226747	-0.0614163	-0.0280418	0.264681	-0.00665818	-0.225699	-0.280497	1.3697	1.42399	0.000420814	0.0022927	-0.233708	-0.0491531	0.0369199	0.500646	1.37782	0.00321411	0.00163884
4	-0.154167	0.011761	-0.0555356	1.73323	0.974471	-0.505137	-0.101903	-0.028704	-0.0685223	0.314694	0.231249	0.0608061	-0.031554	0.594312	-0.00405268	-0.122903	0.211485	-0.0176402	-0.0673232	-0.0226747	-0.058709	-0.031537	0.266679	-0.0114547	-0.224489	-0.281562	1.36477	1.42574	0.000420814	0.0022927	-0.231257	-0.0503804	0.0372865	0.501485	1.3783	0.00321411	0.00163884
4.005	-0.154716	0.01405	-0.05791	1.74083	0.97432	-0.505545	-0.099702	-0.0342083	-0.0710766	0.330758	0.222546	0.0596756	-0.031554	0.594616	-0.0035353	-0.127293	0.225974	-0.0187248	-0.0687846	-0.0226747	-0.055872	-0.0349773	0.268172	-0.0164067	-0.223117	-0.282449	1.35919	1.4275	0.000420814	0.0022927	-0.228629	-0.0516463	0.0377203	0.5024	1.37871	0.00321411	0.00163884
4.01	-0.155326	0.0163712	-0.0597995	1.74844	0.97423	-0.506017	-0.0966677	-0.0398955	-0.0737277	0.34815	0.213307	0.0582561	-0.031554	0.595204	-0.00276851	-0.131349	0.240573	-0.0194458	-0.0700416	-0.0226747	-0.0529941	-0.0383484	0.269103	-0.0214566	-0.221577	-0.283122	1.35296	1.42923	0.000420814	0.0022927	-0.225837	-0.0529331	0.0382139	0.503393	1.37902	0.00321411	0.00163884
4.015	-0.155939	0.0187107	-0.0611873	1.75605	0.974201	-0.506559	-0.0927965	-0.045779	-0.0764818	0.367036	0.203546	0.0565827	-0.031554	0.595974	-0.00171878	-0.135	0.255264	-0.0196604	-0.071186	-0.0226747	-0.050169	-0.0416252	0.269434	-0.0265513	-0.219867	-0.283557	1.34611	1.43093	0.000420814	0.0022927	-0.2229	-0.0542245	0.0387638	0.504468	1.37924	0.00321411	0.00163884
4.02	-0.156489	0.0210484	-0.062075	1.76364	0.974229	-0.507174	-0.0880848	-0.051872	-0.079341	0.387582	0.193267	0.054697	-0.031554	0.596802	-0.000366606	-0.138174	0.270013	-0.019235	-0.0723153	-0.0226747	-0.0474899	-0.0447794	0.269146	-0.0316415	-0.217987	-0.28374	1.33866	1.4326	0.000420814	0.0022927	-0.219836	-0.0555064	0.0393725	0.505629	1.37936	0.00321411	0.00163884
4.025	-0.156905	0.0233691	-0.0624765	1.77123	0.974311	-0.507861	-0.0825293	-0.0581934	-0.0822987	0.409933	0.182451	0.0526461	-0.031554	0.597552	0.00130078	-0.140814	0.284763	-0.0180566	-0.0735184	-0.0226747	-0.0450419	-0.0477891	0.268233	-0.0366811	-0.215938	-0.283669	1.33063	1.43423	0.000420814	0.0022927	-0.216666	-0.0567688	0.0400477	0.506878	1.37936	0.00321411	0.00163884
4.03	-0.157122	0.0256714	-0.0624238	1.7788	0.974441	-0.50862	-0.0761257	-0.0647723	-0.0853304	0.434185	0.171041	0.0504812	-0.031554	0.598096	0.00329334	-0.142891	0.299442	-0.016041	-0.0748603	-0.0226747	-0.042892	-0.050648	0.266707	-0.041628	-0.213725	-0.283348	1.32208	1.43583	0.000420814	0.0022927	-0.213409	-0.0580059	0.0407968	0.508216	1.37927	0.00321411	0.00163884
4.035	-0.157087	0.0279717	-0.0619682	1.78635	0.974607	-0.509444	-0.0688696	-0.0716501	-0.0883824	0.460357	0.158927	0.0482551	-0.031554	0.598325	0.0056191	-0.14442	0.31396	-0.0131399	-0.0763743	-0.0226747	-0.0410799	-0.0533715	0.264608	-0.0464456	-0.211353	-0.282781	1.31305	1.4374	0.000420814	0.0022927	-0.210085	-0.0592179	0.0416284	0.509645	1.37907	0.00321411	0.00163884
4.04	-0.156777	0.030304	-0.0611824	1.79387	0.974798	-0.510328	-0.0607569	-0.0788756	-0.0913632	0.488375	0.145949	0.0460169	-0.031554	0.598161	0.00828174	-0.145461	0.328216	-0.00934352	-0.0780575	-0.0226747	-0.0396086	-0.0559972	0.262001	-0.0511057	-0.208831	-0.281973	1.30357	1.43892	0.000420814	0.0022927	-0.206712	-0.0604106	0.0425497	0.511167	1.37879	0.00321411	0.00163884
4.045	-0.156215	0.0327127	-0.0601622	1.80135	0.975008	-0.51126	-0.051783	-0.0864948	-0.0941419	0.518072	0.131906	0.0438044	-0.031554	0.59756	0.0112762	-0.146121	0.3421	-0.00468005	-0.0798698	-0.0226747	-0.0384422	-0.0585789	0.258983	-0.0555902	-0.206163	-0.280929	1.29368	1.4404	0.000420814	0.0022927	-0.203313	-0.0615944	0.0435628	0.512788	1.3784	0.00321411	0.00163884
4.05	-0.155459	0.0352439	-0.059019	1.8088	0.97524	-0.512227	-0.0419457	-0.0945378	-0.0965542	0.549201	0.116589	0.0416364	-0.031554	0.596505	0.014585	-0.146533	0.355494	0.00078754	-0.0817409	-0.0226747	-0.0375108	-0.0611759	0.255668	-0.0598916	-0.203359	-0.279651	1.28341	1.44182	0.000420814	0.0022927	-0.199911	-0.0627824	0.0446672	0.514512	1.37793	0.00321411	0.00163884
4.055	-0.154574	0.0379373	-0.0578645	1.8162	0.975495	-0.513217	-0.0312486	-0.103006	-0.0984175	0.581467	0.0998272	0.0395081	-0.031554	0.595002	0.0181769	-0.14684	0.368278	0.0069674	-0.0835806	-0.0226747	-0.036725	-0.063841	0.252182	-0.0640118	-0.200426	-0.278143	1.27279	1.44315	0.000420814	0.0022927	-0.196529	-0.0639884	0.045861	0.516344	1.37735	0.00321411	0.00163884
4.06	-0.153636	0.040813	-0.0567961	1.82356	0.975773	-0.514215	-0.0197037	-0.11186	-0.0995496	0.614569	0.0815368	0.037391	-0.031554	0.593065	0.0220065	-0.14717	0.380338	0.0137476	-0.085291	-0.0226747	-0.0359925	-0.0666085	0.248639	-0.067959	-0.197375	-0.276417	1.26185	1.44439	0.000420814	0.0022927	-0.193184	-0.0652243	0.0471401	0.518289	1.37668	0.00321411	0.00163884
